<?xml version="1.0" encoding="UTF-8"?>
<svg xmlns="http://www.w3.org/2000/svg" xmlns:xlink="http://www.w3.org/1999/xlink" width="56px" height="28px" viewBox="0 0 56 28" version="1.1">
<g id="surface1">
<path style=" stroke:none;fill-rule:nonzero;fill:rgb(0%,0%,0%);fill-opacity:1;" d="M 3.480469 16.296875 L 3.996094 16.296875 C 4.476562 16.296875 4.839844 16.203125 5.078125 16.011719 C 5.316406 15.820312 5.4375 15.542969 5.4375 15.179688 C 5.4375 14.8125 5.335938 14.539062 5.136719 14.363281 C 4.933594 14.1875 4.621094 14.101562 4.191406 14.101562 L 3.480469 14.101562 Z M 7.019531 15.121094 C 7.019531 15.917969 6.769531 16.527344 6.273438 16.949219 C 5.777344 17.371094 5.070312 17.582031 4.152344 17.582031 L 3.480469 17.582031 L 3.480469 20.210938 L 1.910156 20.210938 L 1.910156 12.816406 L 4.273438 12.816406 C 5.171875 12.816406 5.851562 13.007812 6.320312 13.394531 C 6.785156 13.78125 7.019531 14.359375 7.019531 15.121094 Z M 12.164062 14.449219 C 12.371094 14.449219 12.546875 14.464844 12.683594 14.496094 L 12.566406 15.941406 C 12.441406 15.910156 12.292969 15.890625 12.113281 15.890625 C 11.621094 15.890625 11.238281 16.019531 10.960938 16.269531 C 10.6875 16.523438 10.550781 16.878906 10.550781 17.332031 L 10.550781 20.210938 L 9.007812 20.210938 L 9.007812 14.554688 L 10.175781 14.554688 L 10.402344 15.507812 L 10.480469 15.507812 C 10.652344 15.191406 10.890625 14.933594 11.191406 14.742188 C 11.488281 14.546875 11.8125 14.449219 12.164062 14.449219 Z M 15.652344 17.375 C 15.652344 17.933594 15.746094 18.355469 15.929688 18.644531 C 16.113281 18.929688 16.410156 19.074219 16.828125 19.074219 C 17.238281 19.074219 17.535156 18.929688 17.714844 18.644531 C 17.894531 18.363281 17.984375 17.9375 17.984375 17.375 C 17.984375 16.8125 17.894531 16.394531 17.710938 16.113281 C 17.53125 15.835938 17.230469 15.695312 16.816406 15.695312 C 16.40625 15.695312 16.109375 15.832031 15.925781 16.113281 C 15.742188 16.390625 15.652344 16.8125 15.652344 17.375 Z M 19.5625 17.375 C 19.5625 18.292969 19.320312 19.015625 18.835938 19.535156 C 18.347656 20.054688 17.671875 20.3125 16.804688 20.3125 C 16.261719 20.3125 15.785156 20.195312 15.371094 19.957031 C 14.953125 19.71875 14.636719 19.378906 14.414062 18.933594 C 14.191406 18.488281 14.078125 17.96875 14.078125 17.375 C 14.078125 16.449219 14.320312 15.730469 14.804688 15.21875 C 15.285156 14.707031 15.964844 14.449219 16.835938 14.449219 C 17.378906 14.449219 17.859375 14.566406 18.273438 14.804688 C 18.6875 15.039062 19.007812 15.378906 19.230469 15.820312 C 19.453125 16.261719 19.5625 16.78125 19.5625 17.375 Z M 26.613281 20.210938 L 25.070312 20.210938 L 25.070312 16.910156 C 25.070312 16.5 25.003906 16.195312 24.867188 15.992188 C 24.730469 15.785156 24.515625 15.683594 24.222656 15.683594 C 23.828125 15.683594 23.539062 15.828125 23.359375 16.121094 C 23.183594 16.410156 23.09375 16.886719 23.09375 17.550781 L 23.09375 20.210938 L 21.550781 20.210938 L 21.550781 14.554688 L 22.726562 14.554688 L 22.9375 15.28125 L 23.023438 15.28125 C 23.171875 15.019531 23.394531 14.816406 23.679688 14.671875 C 23.964844 14.523438 24.296875 14.449219 24.664062 14.449219 C 25.511719 14.449219 26.085938 14.726562 26.386719 15.28125 L 26.523438 15.28125 C 26.675781 15.015625 26.898438 14.8125 27.191406 14.667969 C 27.488281 14.523438 27.820312 14.449219 28.191406 14.449219 C 28.832031 14.449219 29.316406 14.613281 29.644531 14.945312 C 29.976562 15.273438 30.140625 15.800781 30.140625 16.523438 L 30.140625 20.210938 L 28.589844 20.210938 L 28.589844 16.910156 C 28.589844 16.5 28.523438 16.195312 28.386719 15.992188 C 28.25 15.785156 28.035156 15.683594 27.742188 15.683594 C 27.363281 15.683594 27.082031 15.820312 26.894531 16.089844 C 26.707031 16.359375 26.613281 16.789062 26.613281 17.375 Z M 35.539062 20.3125 C 34.875 20.3125 34.355469 20.070312 33.976562 19.589844 L 33.898438 19.589844 C 33.949219 20.0625 33.976562 20.335938 33.976562 20.410156 L 33.976562 22.699219 L 32.433594 22.699219 L 32.433594 14.554688 L 33.6875 14.554688 L 33.90625 15.289062 L 33.976562 15.289062 C 34.339844 14.730469 34.871094 14.449219 35.582031 14.449219 C 36.25 14.449219 36.773438 14.707031 37.148438 15.222656 C 37.527344 15.738281 37.714844 16.457031 37.714844 17.375 C 37.714844 17.976562 37.628906 18.503906 37.449219 18.949219 C 37.273438 19.390625 37.019531 19.730469 36.695312 19.964844 C 36.367188 20.195312 35.984375 20.3125 35.539062 20.3125 Z M 35.085938 15.683594 C 34.703125 15.683594 34.425781 15.800781 34.25 16.035156 C 34.074219 16.269531 33.984375 16.65625 33.976562 17.195312 L 33.976562 17.363281 C 33.976562 17.972656 34.066406 18.40625 34.25 18.667969 C 34.429688 18.933594 34.714844 19.0625 35.105469 19.0625 C 35.796875 19.0625 36.144531 18.492188 36.144531 17.355469 C 36.144531 16.796875 36.058594 16.378906 35.886719 16.101562 C 35.71875 15.824219 35.449219 15.683594 35.085938 15.683594 Z M 42.085938 19.082031 C 42.355469 19.082031 42.679688 19.023438 43.054688 18.90625 L 43.054688 20.054688 C 42.671875 20.226562 42.199219 20.3125 41.640625 20.3125 C 41.023438 20.3125 40.574219 20.15625 40.292969 19.84375 C 40.011719 19.535156 39.871094 19.066406 39.871094 18.441406 L 39.871094 15.714844 L 39.132812 15.714844 L 39.132812 15.0625 L 39.980469 14.546875 L 40.425781 13.351562 L 41.414062 13.351562 L 41.414062 14.554688 L 42.996094 14.554688 L 42.996094 15.714844 L 41.414062 15.714844 L 41.414062 18.441406 C 41.414062 18.660156 41.472656 18.824219 41.597656 18.925781 C 41.71875 19.03125 41.882812 19.082031 42.085938 19.082031 Z M 49.5625 20.210938 L 49.023438 18.453125 L 46.328125 18.453125 L 45.792969 20.210938 L 44.101562 20.210938 L 46.710938 12.785156 L 48.628906 12.785156 L 51.25 20.210938 Z M 48.648438 17.136719 C 48.15625 15.542969 47.875 14.640625 47.8125 14.429688 C 47.75 14.222656 47.707031 14.054688 47.679688 13.933594 C 47.566406 14.367188 47.25 15.433594 46.722656 17.136719 Z M 52.894531 20.210938 L 52.894531 12.816406 L 54.460938 12.816406 L 54.460938 20.210938 Z M 52.894531 20.210938 "/>
</g>
</svg>
